<svg xmlns="http://www.w3.org/2000/svg" width="33.91" height="57.029" viewBox="0 0 33.91 57.029"><path d="M3.888,0H7.777V36.291a3.888,3.888,0,0,1-7.777,0V3.888A3.888,3.888,0,0,1,3.888,0Z" transform="translate(0 28.618) rotate(-45)" fill="#e9e9e9"/><path d="M3.888,1A2.892,2.892,0,0,0,1,3.888v32.4a2.888,2.888,0,1,0,5.777,0V1H3.888m0-1H7.777V36.291a3.888,3.888,0,1,1-7.777,0V3.888A3.888,3.888,0,0,1,3.888,0Z" transform="translate(0 28.618) rotate(-45)" fill="#8f8f8f"/><path d="M0,0H3.888A3.888,3.888,0,0,1,7.777,3.888v32.4a3.888,3.888,0,0,1-7.777,0Z" transform="translate(5.499 33.91) rotate(-135)" fill="#e9e9e9"/><path d="M1,1V36.291a2.888,2.888,0,1,0,5.777,0V3.888A2.892,2.892,0,0,0,3.888,1H1M0,0H3.888A3.888,3.888,0,0,1,7.777,3.888v32.4a3.888,3.888,0,1,1-7.777,0Z" transform="translate(5.499 33.91) rotate(-135)" fill="#8f8f8f"/></svg>