<?xml version="1.0" standalone="no"?>
<!DOCTYPE svg PUBLIC "-//W3C//DTD SVG 20010904//EN"
 "http://www.w3.org/TR/2001/REC-SVG-20010904/DTD/svg10.dtd">
<svg version="1.0" xmlns="http://www.w3.org/2000/svg"
 width="163.000000pt" height="238.000000pt" viewBox="0 0 163.000000 238.000000"
 preserveAspectRatio="xMidYMid meet">

<g transform="translate(0.000000,238.000000) scale(0.100000,-0.100000)"
fill="#000000" stroke="none">
<path d="M591 2344 c-147 -43 -233 -95 -347 -209 -91 -90 -106 -110 -152 -205
-80 -167 -102 -298 -83 -486 39 -364 211 -750 501 -1123 93 -120 277 -311 300
-311 23 0 207 191 300 311 395 508 579 1067 479 1457 -39 153 -147 317 -280
423 -78 64 -219 131 -316 153 -115 25 -298 21 -402 -10z m367 -50 c47 -9 118
-35 181 -65 87 -43 116 -63 186 -132 117 -117 179 -230 211 -387 32 -159 4
-403 -71 -625 -37 -108 -149 -339 -219 -453 -101 -163 -295 -410 -400 -511
l-36 -35 -36 35 c-105 101 -299 348 -400 511 -71 116 -183 347 -219 453 -76
225 -103 465 -71 625 32 156 94 270 210 385 176 175 421 248 664 199z"/>
<path d="M625 2122 c-103 -35 -169 -77 -244 -158 -102 -108 -155 -247 -154
-399 1 -253 168 -478 413 -556 91 -30 249 -30 340 0 196 63 355 233 401 431
67 290 -107 595 -393 685 -114 36 -252 35 -363 -3z m347 -63 c169 -56 294
-192 339 -369 75 -295 -125 -588 -430 -632 -351 -51 -653 272 -577 616 30 133
97 237 201 311 143 102 307 128 467 74z"/>
<path d="M616 1808 c-99 -84 -184 -160 -190 -170 -17 -28 10 -48 65 -48 l49 0
0 -164 c0 -128 3 -166 14 -175 9 -8 47 -11 107 -9 l94 3 5 105 5 105 45 0 45
0 5 -105 5 -105 94 -3 c60 -2 98 1 107 9 11 9 14 47 14 175 l0 164 49 0 c51 0
78 18 68 44 -9 22 -369 326 -386 326 -9 0 -97 -69 -195 -152z m328 -38 c86
-72 120 -106 108 -109 -40 -8 -42 -19 -42 -187 l0 -164 -45 0 -45 0 0 98 c0
63 -4 102 -12 110 -7 7 -44 12 -98 12 -54 0 -91 -5 -98 -12 -8 -8 -12 -47 -12
-110 l0 -98 -45 0 -45 0 0 164 c0 168 -2 179 -42 187 -12 3 23 38 110 111 70
59 130 107 134 105 4 -1 64 -49 132 -107z"/>
</g>
</svg>
