<svg xmlns="http://www.w3.org/2000/svg" width="50.703" height="46.882" viewBox="0 0 50.703 46.882"><g transform="translate(-19.297 -21.059)"><path d="M16.711,40.506a4.7,4.7,0,1,0,0,9.376,4.7,4.7,0,1,0,0-9.376ZM1.5,3V7.688H6.57L15.7,25.48l-3.422,5.743a4.27,4.27,0,0,0-.634,2.25,4.9,4.9,0,0,0,5.07,4.688H47.133V33.473H17.776a.605.605,0,0,1-.634-.586l.076-.281L19.5,28.785H38.387a5.123,5.123,0,0,0,4.437-2.414L51.9,11.157a2.155,2.155,0,0,0,.3-1.125,2.452,2.452,0,0,0-2.535-2.344H12.173L9.79,3ZM42.062,40.506a4.7,4.7,0,1,0,5.07,4.688A4.882,4.882,0,0,0,42.062,40.506Z" transform="translate(17.797 18.059)" fill="#585858"/></g></svg>